<svg xmlns="http://www.w3.org/2000/svg" xmlns:xlink="http://www.w3.org/1999/xlink" version="1.1" width="256" height="256" viewBox="0 0 256 256" xml:space="preserve">

<defs>
</defs>
<g style="stroke: none; stroke-width: 0; stroke-dasharray: none; stroke-linecap: butt; stroke-linejoin: miter; stroke-miterlimit: 10; fill: none; fill-rule: nonzero; opacity: 1;" transform="translate(1.4065934065934016 1.4065934065934016) scale(2.81 2.81)" >
	<path d="M 44.913 26.682 H 15.231 c -8.28 0 -15.002 -3.611 -15.211 -11.841 C 0.016 14.972 0 15.099 0 15.231 v 31.303 c 8.265 10.233 20.908 16.784 35.087 16.784 h 0.682 c 8.28 0 12.002 3.611 12.211 11.841 c 0.003 -0.131 0.02 -0.258 0.02 -0.39 C 48 83.181 44.181 90 35.769 90 h 39 C 83.181 90 90 83.181 90 74.769 C 90 42.732 69.814 26.682 44.913 26.682 z" style="stroke: none; stroke-width: 1; stroke-dasharray: none; stroke-linecap: butt; stroke-linejoin: miter; stroke-miterlimit: 10; fill: rgb(110,93,227); fill-rule: nonzero; opacity: 1;" transform=" matrix(1 0 0 1 0 0) " stroke-linecap="round" />
	<path d="M 90 74.769 L 90 74.769 c 0 -24.901 -20.186 -45.087 -45.087 -45.087 H 15.231 c -8.28 0 -15.002 -6.611 -15.211 -14.841 C 0.016 14.972 0 15.099 0 15.231 C 0 6.819 6.819 0 15.231 0 h 59.538 C 83.181 0 90 6.819 90 15.231 V 74.769" style="stroke: none; stroke-width: 1; stroke-dasharray: none; stroke-linecap: butt; stroke-linejoin: miter; stroke-miterlimit: 10; fill: rgb(115,96,242); fill-rule: nonzero; opacity: 1;" transform=" matrix(1 0 0 1 0 0) " stroke-linecap="round" />
	<path d="M 0 74.769 V 43.534 c 8.265 10.233 20.908 16.784 35.087 16.784 h 0.682 c 8.28 0 15.002 6.611 15.211 14.841 c 0.003 -0.131 0.02 -0.258 0.02 -0.39 C 51 83.181 44.181 90 35.769 90 H 15.231 C 6.819 90 0 83.181 0 74.769 z" style="stroke: none; stroke-width: 1; stroke-dasharray: none; stroke-linecap: butt; stroke-linejoin: miter; stroke-miterlimit: 10; fill: rgb(103,86,212); fill-rule: nonzero; opacity: 1;" transform=" matrix(1 0 0 1 0 0) " stroke-linecap="round" />
	<path d="M 63.357 24.877 c -1.243 -1.147 -6.264 -4.792 -17.448 -4.841 c 0 0 -13.189 -0.796 -19.618 5.102 c -3.579 3.58 -4.838 8.818 -4.97 15.312 c -0.133 6.494 -0.305 18.664 11.426 21.964 h 0.011 l -0.007 5.035 c 0 0 -0.075 2.038 1.267 2.454 c 1.624 0.504 2.577 -1.045 4.127 -2.716 c 0.851 -0.917 2.026 -2.264 2.911 -3.293 c 8.023 0.675 14.194 -0.868 14.894 -1.096 c 1.62 -0.525 10.787 -1.7 12.277 -13.869 C 69.766 36.387 67.483 28.453 63.357 24.877 z M 56.614 52.131 c 0 0.005 -0.004 0.014 -0.004 0.019 c -0.517 0.896 -1.172 1.703 -1.943 2.392 c -0.009 0.004 -0.009 0.009 -0.017 0.013 c -0.669 0.559 -1.327 0.877 -1.973 0.954 c -0.095 0.017 -0.192 0.023 -0.288 0.018 c -0.285 0.003 -0.568 -0.041 -0.839 -0.129 l -0.021 -0.031 c -0.995 -0.281 -2.656 -0.983 -5.423 -2.509 c -1.601 -0.873 -3.125 -1.879 -4.556 -3.009 c -0.717 -0.566 -1.401 -1.173 -2.049 -1.817 l -0.069 -0.069 l -0.069 -0.069 l -0.069 -0.069 c -0.023 -0.022 -0.046 -0.046 -0.069 -0.069 c -0.644 -0.648 -1.251 -1.332 -1.817 -2.049 c -1.13 -1.431 -2.137 -2.954 -3.009 -4.555 c -1.526 -2.767 -2.228 -4.427 -2.509 -5.423 l -0.031 -0.021 c -0.088 -0.271 -0.131 -0.554 -0.128 -0.839 c -0.005 -0.096 0.001 -0.193 0.017 -0.288 c 0.081 -0.645 0.399 -1.303 0.955 -1.974 c 0.004 -0.008 0.009 -0.008 0.013 -0.017 c 0.689 -0.771 1.497 -1.426 2.392 -1.942 c 0.004 0 0.013 -0.004 0.019 -0.004 c 0.901 -0.469 1.754 -0.31 2.335 0.375 c 0.004 0.004 1.209 1.451 1.726 2.157 c 0.532 0.749 1.027 1.523 1.481 2.322 c 0.593 1.063 0.221 2.152 -0.361 2.601 l -1.174 0.933 c -0.593 0.479 -0.514 1.368 -0.514 1.368 s 1.739 6.583 8.238 8.242 c 0 0 0.889 0.075 1.368 -0.515 l 0.933 -1.174 c 0.45 -0.582 1.537 -0.954 2.601 -0.361 c 0.797 0.454 1.571 0.949 2.319 1.481 c 0.706 0.519 2.152 1.726 2.156 1.726 C 56.924 50.376 57.083 51.23 56.614 52.131 z M 51.238 35.889 c -1.316 -1.436 -3.119 -2.219 -5.511 -2.394 c -0.348 -0.026 -0.61 -0.329 -0.584 -0.677 c 0.026 -0.348 0.33 -0.611 0.677 -0.584 c 2.692 0.197 4.829 1.14 6.352 2.802 c 1.526 1.668 2.273 3.765 2.219 6.233 c -0.007 0.344 -0.289 0.619 -0.632 0.619 c -0.004 0 -0.009 0 -0.014 0 c -0.349 -0.008 -0.626 -0.297 -0.619 -0.646 C 53.173 39.078 52.556 37.328 51.238 35.889 z M 51.145 40.135 c 0.017 0.349 -0.252 0.646 -0.601 0.663 c -0.011 0.001 -0.021 0.001 -0.032 0.001 c -0.335 0 -0.614 -0.263 -0.631 -0.601 c -0.107 -2.149 -1.117 -3.201 -3.181 -3.308 c -0.349 -0.018 -0.617 -0.316 -0.599 -0.664 c 0.018 -0.349 0.314 -0.618 0.664 -0.599 C 49.491 35.769 51.006 37.327 51.145 40.135 z M 57.086 43.186 c -0.002 0 -0.003 0 -0.005 0 c -0.347 0 -0.63 -0.28 -0.632 -0.628 c -0.029 -3.816 -1.174 -6.853 -3.404 -9.027 c -2.234 -2.178 -5.057 -3.294 -8.39 -3.317 c -0.349 -0.002 -0.631 -0.288 -0.628 -0.637 c 0.002 -0.348 0.285 -0.628 0.632 -0.628 c 0.002 0 0.003 0 0.004 0 c 3.672 0.026 6.789 1.262 9.264 3.676 c 2.481 2.418 3.754 5.757 3.786 9.923 C 57.715 42.898 57.434 43.183 57.086 43.186 z" style="stroke: none; stroke-width: 1; stroke-dasharray: none; stroke-linecap: butt; stroke-linejoin: miter; stroke-miterlimit: 10; fill: rgb(255,255,255); fill-rule: nonzero; opacity: 1;" transform=" matrix(1 0 0 1 0 0) " stroke-linecap="round" />
</g>
</svg>