<svg xmlns="http://www.w3.org/2000/svg" xmlns:xlink="http://www.w3.org/1999/xlink" version="1.1" width="256" height="256" viewBox="0 0 256 256" xml:space="preserve">

<defs>
</defs>
<g style="stroke: none; stroke-width: 0; stroke-dasharray: none; stroke-linecap: butt; stroke-linejoin: miter; stroke-miterlimit: 10; fill: none; fill-rule: nonzero; opacity: 1;" transform="translate(1.4065934065934016 1.4065934065934016) scale(2.81 2.81)" >
	<path d="M 44.904 52.049 c -0.556 0 -1.111 -0.119 -1.633 -0.356 c -0.96 -0.438 -1.693 -1.222 -2.064 -2.21 c -0.194 -0.517 0.068 -1.093 0.585 -1.287 c 0.519 -0.191 1.094 0.068 1.288 0.586 c 0.183 0.487 0.544 0.875 1.019 1.09 c 0.475 0.216 1.004 0.235 1.492 0.051 c 0.488 -0.183 0.875 -0.545 1.09 -1.019 c 0.216 -0.475 0.234 -1.004 0.051 -1.491 c -0.217 -0.577 -0.682 -1.008 -1.276 -1.183 l -1.537 -0.561 c -1.142 -0.333 -2.084 -1.207 -2.523 -2.378 c -0.371 -0.988 -0.334 -2.061 0.103 -3.021 c 0.437 -0.96 1.221 -1.693 2.209 -2.064 c 2.04 -0.764 4.32 0.272 5.085 2.312 c 0.193 0.517 -0.068 1.093 -0.585 1.288 c -0.518 0.191 -1.094 -0.067 -1.288 -0.585 c -0.377 -1.006 -1.5 -1.516 -2.51 -1.141 c -0.488 0.183 -0.875 0.545 -1.091 1.019 c -0.215 0.474 -0.233 1.004 -0.051 1.492 c 0.217 0.577 0.682 1.007 1.276 1.182 l 1.537 0.561 c 1.141 0.333 2.083 1.207 2.523 2.378 c 0.765 2.039 -0.272 4.32 -2.312 5.086 C 45.841 51.964 45.372 52.049 44.904 52.049 z" style="stroke: none; stroke-width: 1; stroke-dasharray: none; stroke-linecap: butt; stroke-linejoin: miter; stroke-miterlimit: 10; fill: rgb(0,0,0); fill-rule: nonzero; opacity: 1;" transform=" matrix(1 0 0 1 0 0) " stroke-linecap="round" />
	<path d="M 45 39.957 c -0.552 0 -1 -0.448 -1 -1 v -1.649 c 0 -0.552 0.448 -1 1 -1 s 1 0.448 1 1 v 1.649 C 46 39.509 45.552 39.957 45 39.957 z" style="stroke: none; stroke-width: 1; stroke-dasharray: none; stroke-linecap: butt; stroke-linejoin: miter; stroke-miterlimit: 10; fill: rgb(0,0,0); fill-rule: nonzero; opacity: 1;" transform=" matrix(1 0 0 1 0 0) " stroke-linecap="round" />
	<path d="M 45 53.691 c -0.552 0 -1 -0.447 -1 -1 v -1.648 c 0 -0.553 0.448 -1 1 -1 s 1 0.447 1 1 v 1.648 C 46 53.244 45.552 53.691 45 53.691 z" style="stroke: none; stroke-width: 1; stroke-dasharray: none; stroke-linecap: butt; stroke-linejoin: miter; stroke-miterlimit: 10; fill: rgb(0,0,0); fill-rule: nonzero; opacity: 1;" transform=" matrix(1 0 0 1 0 0) " stroke-linecap="round" />
	<path d="M 89 66.909 H 1 c -0.552 0 -1 -0.447 -1 -1 V 24.09 c 0 -0.552 0.448 -1 1 -1 h 88 c 0.553 0 1 0.448 1 1 v 41.819 C 90 66.462 89.553 66.909 89 66.909 z M 2 64.909 h 86 V 25.09 H 2 V 64.909 z" style="stroke: none; stroke-width: 1; stroke-dasharray: none; stroke-linecap: butt; stroke-linejoin: miter; stroke-miterlimit: 10; fill: rgb(0,0,0); fill-rule: nonzero; opacity: 1;" transform=" matrix(1 0 0 1 0 0) " stroke-linecap="round" />
	<path d="M 45 59.748 c -8.132 0 -14.748 -6.616 -14.748 -14.748 c 0 -8.132 6.616 -14.748 14.748 -14.748 c 8.132 0 14.748 6.616 14.748 14.748 C 59.748 53.132 53.132 59.748 45 59.748 z M 45 32.252 c -7.029 0 -12.748 5.719 -12.748 12.748 S 37.971 57.748 45 57.748 S 57.748 52.029 57.748 45 S 52.029 32.252 45 32.252 z" style="stroke: none; stroke-width: 1; stroke-dasharray: none; stroke-linecap: butt; stroke-linejoin: miter; stroke-miterlimit: 10; fill: rgb(0,0,0); fill-rule: nonzero; opacity: 1;" transform=" matrix(1 0 0 1 0 0) " stroke-linecap="round" />
	<path d="M 74.696 50.624 c -3.102 0 -5.625 -2.522 -5.625 -5.624 s 2.523 -5.625 5.625 -5.625 S 80.32 41.898 80.32 45 S 77.798 50.624 74.696 50.624 z M 74.696 41.375 c -1.999 0 -3.625 1.626 -3.625 3.625 c 0 1.998 1.626 3.624 3.625 3.624 c 1.998 0 3.624 -1.626 3.624 -3.624 C 78.32 43.001 76.694 41.375 74.696 41.375 z" style="stroke: none; stroke-width: 1; stroke-dasharray: none; stroke-linecap: butt; stroke-linejoin: miter; stroke-miterlimit: 10; fill: rgb(0,0,0); fill-rule: nonzero; opacity: 1;" transform=" matrix(1 0 0 1 0 0) " stroke-linecap="round" />
	<path d="M 15.304 50.624 c -3.102 0 -5.625 -2.522 -5.625 -5.624 s 2.523 -5.625 5.625 -5.625 s 5.625 2.523 5.625 5.625 S 18.406 50.624 15.304 50.624 z M 15.304 41.375 c -1.999 0 -3.625 1.626 -3.625 3.625 c 0 1.998 1.626 3.624 3.625 3.624 s 3.625 -1.626 3.625 -3.624 C 18.929 43.001 17.303 41.375 15.304 41.375 z" style="stroke: none; stroke-width: 1; stroke-dasharray: none; stroke-linecap: butt; stroke-linejoin: miter; stroke-miterlimit: 10; fill: rgb(0,0,0); fill-rule: nonzero; opacity: 1;" transform=" matrix(1 0 0 1 0 0) " stroke-linecap="round" />
</g>
</svg>